<svg width="38" height="30" viewBox="0 0 38 30" fill="none" xmlns="http://www.w3.org/2000/svg">
<g clip-path="url(#clip0_53_296)">
<path d="M14.2168 0.0874996C13.7246 0.292578 13.6543 0.473046 13.6543 1.58867V2.59766H12.6875C10.9736 2.59766 10.8418 2.72891 10.8418 4.33672C10.8418 4.96836 10.8857 5.54258 10.9385 5.65742C11.123 6.03477 11.4307 6.125 12.5908 6.125H13.6543V7.10937C13.6543 8.65977 13.7598 8.75 15.5 8.75C17.2402 8.75 17.3457 8.65977 17.3457 7.10937V6.125H18.4092C19.5693 6.125 19.877 6.03477 20.0615 5.65742C20.1143 5.54258 20.1582 4.96836 20.1582 4.33672C20.1582 2.72891 20.0264 2.59766 18.3125 2.59766H17.3457V1.58867C17.3457 0.464843 17.2754 0.284374 16.7656 0.0874996C16.3701 -0.0683603 14.5947 -0.0601568 14.2168 0.0874996Z" fill="#CC0000" fill-opacity="0.69"/>
<path d="M6.99218 5.3457C6.40331 5.50156 6.06054 5.66562 5.57714 6.02656C5.16406 6.34648 1.05078 11.0797 0.804682 11.5391C0.479486 12.1215 0.681635 13.0402 1.22656 13.5242C1.80663 14.0328 0.848627 14 15.5 14C30.1514 14 29.1934 14.0328 29.7734 13.5242C30.3184 13.0402 30.5205 12.1215 30.1953 11.5391C29.9844 11.1453 25.8887 6.3957 25.4756 6.05117C24.7812 5.48515 23.7969 5.19804 22.6982 5.23906L22.0478 5.26367L22.0039 6.01836C21.96 6.68281 21.9248 6.80586 21.6963 7.11758C21.3184 7.60976 20.8877 7.79844 19.9824 7.84765L19.2353 7.88867L19.1914 8.64336C19.1475 9.30781 19.1123 9.43086 18.8838 9.74258C18.3828 10.407 18.2598 10.4316 15.5 10.4316C12.7402 10.4316 12.6172 10.407 12.1162 9.74258C11.8877 9.43086 11.8525 9.30781 11.8086 8.64336L11.7646 7.88867L11.0176 7.84765C10.1123 7.79844 9.68163 7.60976 9.30371 7.11758C9.07519 6.80586 9.04003 6.68281 8.99609 6.01836L8.95214 5.26367L8.20507 5.24726C7.77441 5.23906 7.26464 5.28008 6.99218 5.3457Z" fill="#CC0000" fill-opacity="0.69"/>
<path d="M2.37792 15.7801C2.27245 15.8703 2.30761 27.9453 2.41308 28.3555C2.54491 28.8969 2.8789 29.2988 3.39745 29.5449L3.84569 29.75H7.82714H11.7998L11.8262 26.6492L11.8525 23.5566L12.1338 23.0152C12.5029 22.3262 13.1709 21.7027 13.9092 21.3582C14.4541 21.1121 14.5332 21.0957 15.5 21.0957C16.4668 21.0957 16.5459 21.1121 17.0908 21.3582C17.8291 21.7027 18.4971 22.3262 18.8662 23.0152L19.1475 23.5566L19.1738 26.6492L19.2002 29.75H23.1728H27.1543L27.6025 29.5449C28.1474 29.2906 28.4814 28.8723 28.5957 28.2652C28.6484 27.9863 28.6748 25.591 28.666 21.793L28.6396 15.7637L15.5351 15.7391C8.32812 15.7309 2.40429 15.7473 2.37792 15.7801ZM18.9805 17.798C19.3848 18.241 19.209 18.9793 18.6465 19.1598C18.3037 19.2746 12.7051 19.2828 12.3975 19.1762C12.0195 19.0367 11.8086 18.7578 11.8086 18.3887C11.8086 18.0195 11.9932 17.716 12.2832 17.6094C12.3799 17.5684 13.8828 17.5438 15.6142 17.552L18.7695 17.5684L18.9805 17.798Z" fill="#CC0000" fill-opacity="0.69"/>
</g>
<defs>
<clipPath id="clip0_53_296">
<rect width="38" height="30" fill="white"/>
</clipPath>
</defs>
</svg>
