<svg width="28" height="27" viewBox="0 0 28 27" fill="none" xmlns="http://www.w3.org/2000/svg">
<path d="M12.7904 0.103199C12.3264 0.289155 12.2601 0.452797 12.2601 1.4644V2.37931H11.3488C9.73316 2.37931 9.60889 2.49832 9.60889 3.95622C9.60889 4.52897 9.65031 5.04965 9.70002 5.15378C9.87401 5.49594 10.164 5.57776 11.2576 5.57776H12.2601V6.47035C12.2601 7.87619 12.3595 7.95801 14 7.95801C15.6404 7.95801 15.7398 7.87619 15.7398 6.47035V5.57776H16.7423C17.836 5.57776 18.126 5.49594 18.2999 5.15378C18.3496 5.04965 18.3911 4.52897 18.3911 3.95622C18.3911 2.49832 18.2668 2.37931 16.6512 2.37931H15.7398V1.4644C15.7398 0.445359 15.6736 0.281717 15.193 0.103199C14.8202 -0.0381283 13.1466 -0.0306901 12.7904 0.103199Z" fill="#999999"/>
<path d="M5.98004 4.87117C5.42494 5.0125 5.10182 5.16127 4.64614 5.48855C4.25674 5.77864 0.379325 10.0705 0.147342 10.4871C-0.159206 11.0152 0.0313513 11.8483 0.545026 12.2871C1.09184 12.7483 0.188768 12.7185 14 12.7185C27.8112 12.7185 26.9082 12.7483 27.455 12.2871C27.9686 11.8483 28.1592 11.0152 27.8527 10.4871C27.6538 10.13 23.793 5.82327 23.4036 5.51087C22.749 4.99763 21.8211 4.73729 20.7855 4.77448L20.1724 4.79679L20.131 5.48111C20.0895 6.08361 20.0564 6.19519 19.841 6.47784C19.4847 6.92414 19.0788 7.09522 18.2254 7.13985L17.5212 7.17704L17.4797 7.86136C17.4383 8.46386 17.4052 8.57543 17.1898 8.85808C16.7175 9.46058 16.6015 9.4829 14 9.4829C11.3985 9.4829 11.2825 9.46058 10.8102 8.85808C10.5948 8.57543 10.5617 8.46386 10.5203 7.86136L10.4788 7.17704L9.77461 7.13985C8.92124 7.09522 8.51528 6.92414 8.15902 6.47784C7.9436 6.19519 7.91046 6.08361 7.86904 5.48111L7.82761 4.79679L7.12338 4.78192C6.71741 4.77448 6.23688 4.81167 5.98004 4.87117Z" fill="#999999"/>
<path d="M1.63034 14.3326C1.53092 14.4145 1.56406 25.3636 1.66348 25.7355C1.78776 26.2264 2.10259 26.5909 2.59141 26.814L3.01395 27H6.76709H10.512L10.5368 24.1883L10.5617 21.3841L10.8268 20.8932C11.1748 20.2684 11.8044 19.7031 12.5004 19.3907C13.014 19.1675 13.0886 19.1526 14 19.1526C14.9113 19.1526 14.9859 19.1675 15.4996 19.3907C16.1955 19.7031 16.8252 20.2684 17.1732 20.8932L17.4383 21.3841L17.4631 24.1883L17.488 27H21.2328H24.986L25.4085 26.814C25.9222 26.5835 26.237 26.2041 26.3447 25.6537C26.3945 25.4008 26.4193 23.2288 26.411 19.7849L26.3862 14.3178L14.0331 14.2954C7.23934 14.288 1.6552 14.3029 1.63034 14.3326ZM17.2809 16.1624C17.662 16.5641 17.4963 17.2336 16.966 17.3972C16.6429 17.5013 11.3653 17.5088 11.0753 17.4121C10.7191 17.2856 10.5202 17.0327 10.5202 16.698C10.5202 16.3633 10.6942 16.0881 10.9676 15.9914C11.0588 15.9542 12.4755 15.9319 14.1077 15.9393L17.082 15.9542L17.2809 16.1624Z" fill="#999999"/>
</svg>
