<svg width="199" height="283" viewBox="0 0 199 283" fill="none" xmlns="http://www.w3.org/2000/svg">
<path d="M91.6689 0.331718C67.0736 2.6532 46.4808 11.7733 29.6005 27.9132C6.04935 50.2989 -3.986 82.247 2.62689 113.366C4.07708 120.109 6.62943 127.571 9.64583 133.707C10.922 136.304 30.5286 170.463 53.2677 209.652C96.4835 284.271 95.6714 283 99.4999 283C103.328 283 102.516 284.271 145.79 209.652C168.471 170.408 188.136 136.249 189.354 133.707C200.144 111.597 201.246 84.9001 192.37 62.0721C187.15 48.7513 179.783 37.7518 169.399 27.9132C154.375 13.5421 136.915 4.97469 115.452 1.32664C110.811 0.552811 96.0195 -0.11047 91.6689 0.331718ZM104.431 47.5352C116.902 48.8618 126.996 53.6706 135.581 62.3485C144.978 71.8555 149.271 83.0761 148.633 96.397C148.227 104.301 147.298 107.949 143.876 114.803C137.727 126.853 126.88 135.641 113.132 139.621C108.491 140.947 106.983 141.113 99.4999 141.113C92.0169 141.113 90.5087 140.947 85.8681 139.621C75.9488 136.747 67.4216 131.385 61.1568 123.923C57.3863 119.501 53.1517 111.597 51.6435 106.401C50.1933 101.316 49.8453 90.6485 51.0054 85.3423C55.24 65.278 72.6423 49.912 93.6992 47.5905C96.0775 47.3141 98.3398 47.093 98.6298 47.0378C98.9779 47.0378 101.588 47.2589 104.431 47.5352Z" fill="#CC0000" fill-opacity="0.5"/>
<path d="M86.7812 74.8182L98.7876 94.445H99.1797L111.186 74.8182H119.958L104.325 99.9091L120.056 125H111.235L99.1797 105.643H98.7876L86.7322 125H77.9112L93.9116 99.9091L78.0092 74.8182H86.7812Z" fill="#CC0000" fill-opacity="0.78"/>
</svg>
