<svg width="100" height="122" viewBox="0 0 100 122" fill="none" xmlns="http://www.w3.org/2000/svg">
<path d="M49.104 0.813667C48.0922 1.05624 35.4602 15.3414 28.118 24.5324C19.5907 35.2059 12.9711 44.8281 8.37504 53.3184C1.40864 66.0941 -0.23902 73.4254 1.61098 83.3711C4.79067 100.54 18.2899 114.61 36.2696 119.515C50.1157 123.262 65.2914 121.105 77.143 113.72C89.4282 106.039 97.2039 94.0715 98.8516 80.2715C99.8344 71.916 97.9844 64.9891 91.625 53.3184C88.3008 47.2 86.5375 44.3969 81.0743 36.7422C74.686 27.7129 66.9102 18.0906 58.2383 8.4414C51.0118 0.382417 50.954 0.355464 49.104 0.813667ZM57.3711 56.2832C58.0938 56.9301 58.0938 57.0109 58.0938 61.6738V66.3906H63.1524C68.1532 66.3906 68.2399 66.3906 68.9336 67.0644L69.6563 67.7113V73.9375V80.1637L68.9336 80.8105C68.2399 81.4844 68.1532 81.4844 63.1524 81.4844H58.0938V86.2012C58.0938 90.8641 58.0938 90.9449 57.3711 91.5918L56.6774 92.2656H50H43.3227L42.629 91.5918C41.9063 90.9449 41.9063 90.8641 41.9063 86.2012V81.4844H36.8477C31.8469 81.4844 31.7602 81.4844 31.0665 80.8105L30.3438 80.1637V73.9375V67.7113L31.0665 67.0644C31.7602 66.3906 31.8469 66.3906 36.8477 66.3906H41.9063V61.6738C41.9063 57.0109 41.9063 56.9301 42.629 56.2832L43.3227 55.6094H50H56.6774L57.3711 56.2832Z" fill="#CC0000"/>
<path d="M46.5313 64.2883C46.5313 66.7141 46.4445 68.9512 46.3578 69.3016C46.0109 70.4875 44.9414 70.7031 39.7383 70.7031H34.9688V73.9105V77.1449L40.1719 77.2258C44.6813 77.3066 45.4328 77.3605 45.8664 77.7918C46.3289 78.1961 46.3867 78.8969 46.4734 83.1016L46.5602 87.9531H50.0289H53.4688V83.2363C53.4688 76.8215 53.093 77.1719 59.9727 77.1719H65.0313V73.9645V70.7301L59.8281 70.6492C55.3188 70.5684 54.5672 70.5145 54.1336 70.0832C53.6711 69.6789 53.6133 68.9781 53.5266 64.7734L53.4398 59.9219H49.9711H46.5313V64.2883Z" fill="#CC0000"/>
</svg>
